# xmcd
#
# Track frame offsets:
#	150
#	17836
#	39526
#	60465
#	100365
#	119472
#	150637
#	176752
#	198576
#	216170
#
# Disc length: 3158 seconds
#
# Revision: 1
# Processed by: cddbd v1.5.2PL0 Copyright (c) Steve Scherf et al.
# Submitted via: audiograbber 1.83.01
#
DISCID=8b0c540a
DTITLE=ANDABLUSES - BlueStop
DYEAR=2002
DGENRE=Blues
TTITLE0=Funky Lover Blues
TTITLE1=Black Horse Blues
TTITLE2=Gypsy's Told Me
TTITLE3=Tears of Blue
TTITLE4=My Fair Lady
TTITLE5=My Sexy Girl
TTITLE6=I Think You Need is Blues
TTITLE7=The Thrill is Gone
TTITLE8=Bad Governments
TTITLE9=My Sweet Little Cake
EXTD=
EXTT0=
EXTT1=
EXTT2=
EXTT3=
EXTT4=
EXTT5=
EXTT6=
EXTT7=
EXTT8=
EXTT9=
PLAYORDER=
